<?xml version="1.0" encoding="UTF-8"?>
<svg xmlns="http://www.w3.org/2000/svg" xmlns:xlink="http://www.w3.org/1999/xlink" version="1.1" id="Layer_1" x="0px" y="0px" viewBox="0 0 3000 3000" style="enable-background:new 0 0 3000 3000;" xml:space="preserve">
<style type="text/css">
	.st0{fill:#BA0000;}
	.st1{display:none;}
	.st2{display:inline;fill:#BA0000;}
	.st3{display:inline;fill:#f2f2f2;}
</style>
<g id="JI_Black">
	<polygon class="st0" points="2857,315.88 2733.26,530.18 2238.41,530.18 2362.06,315.88  "></polygon>
	<polygon points="2610.27,749.33 2486.53,963.63 2362.8,1177.93 2239.15,1392.14 2239.15,1392.23 2115.42,1606.53 1991.68,1820.84    1867.95,2035.14 1744.21,2249.44 1620.48,2463.74 1496.74,2678.04 1373,2463.74 1249.27,2249.44 1373,2035.14 1496.74,2249.44    1620.48,2035.14 1744.21,1820.84 1867.95,1606.53 1991.68,1392.23 1991.68,1392.14 2115.42,1177.93 2115.42,1177.84    2239.06,963.63 2362.8,749.33  "></polygon>
	<polygon points="2238.32,530.18 2114.59,744.48 1990.94,958.69 1990.94,958.79 1990.85,958.79 1867.21,1172.99 1867.21,1173.09    1743.47,1387.3 1743.47,1387.39 1619.74,1601.69 1496,1815.99 1372.26,2030.29 1124.79,2030.29 1001.15,1816.08 1001.15,1815.99    1001.06,1815.99 877.41,1601.78 877.41,1601.69 877.32,1601.69 753.68,1387.39 506.21,958.79 1248.62,958.79 1124.89,1173.09    877.41,1173.09 1001.06,1387.39 1001.15,1387.39 1124.79,1601.69 1124.89,1601.69 1124.89,1601.78 1248.53,1815.99    1248.62,1815.99 1372.36,1601.78 1372.36,1601.69 1496,1387.39 1496.09,1387.39 1619.74,1173.09 1619.83,1173.09 1743.47,958.79    1743.56,958.79 1867.21,744.48 1867.3,744.48 1990.94,530.28 1990.94,530.18 506.21,530.18 629.94,744.48 382.47,744.48    258.74,530.28 258.74,530.18 135,315.98 135,315.88 2114.68,315.88 2114.68,315.98  "></polygon>
</g>
<g id="JI_White" class="st1">
	<polygon class="st2" points="2861,318.92 2737.26,533.22 2242.41,533.22 2366.06,318.92  "></polygon>
	<polygon class="st3" points="2614.27,752.37 2490.53,966.67 2366.8,1180.97 2243.15,1395.18 2243.15,1395.27 2119.42,1609.57    1995.68,1823.87 1871.95,2038.18 1748.21,2252.48 1624.48,2466.78 1500.74,2681.08 1377,2466.78 1253.27,2252.48 1377,2038.18    1500.74,2252.48 1624.48,2038.18 1748.21,1823.87 1871.95,1609.57 1995.68,1395.27 1995.68,1395.18 2119.42,1180.97    2119.42,1180.88 2243.06,966.67 2366.8,752.37  "></polygon>
	<polygon class="st3" points="2242.32,533.22 2118.59,747.52 1994.94,961.73 1994.94,961.82 1994.85,961.82 1871.21,1176.03    1871.21,1176.13 1747.47,1390.33 1747.47,1390.43 1623.74,1604.73 1500,1819.03 1376.26,2033.33 1128.79,2033.33 1005.15,1819.12    1005.15,1819.03 1005.06,1819.03 881.41,1604.82 881.41,1604.73 881.32,1604.73 757.68,1390.43 510.21,961.82 1252.62,961.82    1128.89,1176.13 881.41,1176.13 1005.06,1390.43 1005.15,1390.43 1128.79,1604.73 1128.89,1604.73 1128.89,1604.82    1252.53,1819.03 1252.62,1819.03 1376.36,1604.82 1376.36,1604.73 1500,1390.43 1500.09,1390.43 1623.74,1176.13 1623.83,1176.13    1747.47,961.82 1747.56,961.82 1871.21,747.52 1871.3,747.52 1994.94,533.32 1994.94,533.22 510.21,533.22 633.94,747.52    386.47,747.52 262.74,533.32 262.74,533.22 139,319.01 139,318.92 2118.68,318.92 2118.68,319.01  "></polygon>
</g>
</svg>
